<svg width="32" height="32" viewBox="0 0 32 32" fill="none" xmlns="http://www.w3.org/2000/svg">
  <defs>
    <linearGradient id="gradient" x1="0%" y1="0%" x2="100%" y2="100%">
      <stop offset="0%" style="stop-color:#00bcd4;stop-opacity:1" />
      <stop offset="100%" style="stop-color:#0891b2;stop-opacity:1" />
    </linearGradient>
  </defs>
  
  <!-- Background circle -->
  <circle cx="16" cy="16" r="15" fill="url(#gradient)" stroke="#0891b2" stroke-width="1"/>
  
  <!-- Neural network nodes -->
  <circle cx="8" cy="10" r="1.5" fill="white" opacity="0.9"/>
  <circle cx="8" cy="16" r="1.5" fill="white" opacity="0.9"/>
  <circle cx="8" cy="22" r="1.5" fill="white" opacity="0.9"/>
  
  <circle cx="16" cy="8" r="1.5" fill="white" opacity="0.9"/>
  <circle cx="16" cy="16" r="2" fill="white"/>
  <circle cx="16" cy="24" r="1.5" fill="white" opacity="0.9"/>
  
  <circle cx="24" cy="12" r="1.5" fill="white" opacity="0.9"/>
  <circle cx="24" cy="20" r="1.5" fill="white" opacity="0.9"/>
  
  <!-- Connection lines -->
  <line x1="8" y1="10" x2="16" y2="8" stroke="white" stroke-width="0.8" opacity="0.6"/>
  <line x1="8" y1="10" x2="16" y2="16" stroke="white" stroke-width="0.8" opacity="0.6"/>
  <line x1="8" y1="16" x2="16" y2="16" stroke="white" stroke-width="1" opacity="0.8"/>
  <line x1="8" y1="16" x2="16" y2="24" stroke="white" stroke-width="0.8" opacity="0.6"/>
  <line x1="8" y1="22" x2="16" y2="16" stroke="white" stroke-width="0.8" opacity="0.6"/>
  <line x1="8" y1="22" x2="16" y2="24" stroke="white" stroke-width="0.8" opacity="0.6"/>
  
  <line x1="16" y1="8" x2="24" y2="12" stroke="white" stroke-width="0.8" opacity="0.6"/>
  <line x1="16" y1="16" x2="24" y2="12" stroke="white" stroke-width="1" opacity="0.8"/>
  <line x1="16" y1="16" x2="24" y2="20" stroke="white" stroke-width="1" opacity="0.8"/>
  <line x1="16" y1="24" x2="24" y2="20" stroke="white" stroke-width="0.8" opacity="0.6"/>
  
  <!-- HF initials -->
  <text x="16" y="20" font-family="Arial, sans-serif" font-size="6" font-weight="bold" text-anchor="middle" fill="white" opacity="0.3">HF</text>
</svg>
